   <svg xmlns="http://www.w3.org/2000/svg" width="24" height="24" viewBox="0 0 24 24" fill="none">
                            <path
                                d="M4.22964 17.7336L4.26774 17.7594H4.31375H8.51953H12.7253H12.7713L12.8094 17.7336C14.8467 16.3539 16.1891 14.0204 16.1891 11.3789C16.1891 7.14979 12.7486 3.70937 8.51953 3.70937C4.29042 3.70937 0.85 7.14979 0.85 11.3789C0.85 14.0204 2.19233 16.3539 4.22964 17.7336ZM8.51953 17.4594C5.16139 17.4594 2.43906 14.737 2.43906 11.3789C2.43906 8.02077 5.16139 5.29844 8.51953 5.29844C11.8777 5.29844 14.6 8.02077 14.6 11.3789C14.6 14.737 11.8777 17.4594 8.51953 17.4594Z"
                                fill="currentColor" stroke="currentColor" strokeWidth="0.3"></path>
                            <path
                                d="M6.08885 12.6311C5.92389 12.6311 5.75893 12.5682 5.63312 12.4423C5.38141 12.1906 5.38141 11.7825 5.63312 11.5308L8.67144 8.49249C8.92311 8.24078 9.33122 8.24078 9.58293 8.49249C9.83464 8.7442 9.83464 9.15228 9.58293 9.40399L6.54461 12.4423C6.41872 12.5682 6.2538 12.6311 6.08885 12.6311ZM11.4059 11.227L8.36761 14.2653C8.24175 14.3912 8.07679 14.4541 7.91188 14.4541C7.74697 14.4541 7.58197 14.3912 7.45615 14.2653C7.20444 14.0136 7.20444 13.6055 7.45615 13.3538L10.4945 10.3155C10.7461 10.0638 11.1543 10.0638 11.406 10.3155C11.6576 10.5672 11.6576 10.9753 11.4059 11.227Z"
                                fill="currentColor"></path>
                            <path
                                d="M15.3945 18.8984H1.64453C1.28858 18.8984 1 19.187 1 19.543C1 20.6109 1.86569 21.4766 2.93359 21.4766H14.1055C15.1734 21.4766 16.0391 20.6109 16.0391 19.543C16.0391 19.187 15.7505 18.8984 15.3945 18.8984Z"
                                fill="currentColor"></path>
                            <path
                                d="M22.6834 4.10734C20.185 2.63089 17.6512 2.63089 15.1527 4.10734C14.8545 4.28355 14.7488 4.664 14.9136 4.96873L16.8702 8.58799H20.966L22.9226 4.96873C23.0873 4.664 22.9816 4.28355 22.6834 4.10734Z"
                                fill="currentColor"></path>
                            <path d="M17.3066 9.875H20.5293V11.8086H17.3066V9.875Z" fill="currentColor"></path>
                            <path
                                d="M17.3066 19.8652C17.3066 20.7552 18.028 21.4766 18.918 21.4766C19.8079 21.4766 20.5293 20.7552 20.5293 19.8652V13.0977H17.3066V19.8652Z"
                                fill="currentColor"></path>
                        </svg>