<svg xmlns="http://www.w3.org/2000/svg" width="19" height="20" viewBox="0 0 19 20" fill="none"><path d="M2 20C1.45 20 0.979167 19.8042 0.5875 19.4125C0.195833 19.0208 0 18.55 0 18V2C0 1.45 0.195833 0.979167 0.5875 0.5875C0.979167 0.195833 1.45 0 2 0H9.175C9.44167 0 9.69583 0.05 9.9375 0.15C10.1792 0.25 10.3917 0.391667 10.575 0.575L15.425 5.425C15.6083 5.60833 15.75 5.82083 15.85 6.0625C15.95 6.30417 16 6.55833 16 6.825V9C15.6167 9.08333 15.2583 9.21667 14.925 9.4C14.5917 9.58333 14.2833 9.81667 14 10.1L8.6 15.5C8.41667 15.6833 8.27083 15.8958 8.1625 16.1375C8.05417 16.3792 8 16.6333 8 16.9V20H2ZM10 19V17.35C10 17.2167 10.025 17.0875 10.075 16.9625C10.125 16.8375 10.2 16.725 10.3 16.625L15.525 11.425C15.675 11.275 15.8417 11.1667 16.025 11.1C16.2083 11.0333 16.3917 11 16.575 11C16.775 11 16.9667 11.0375 17.15 11.1125C17.3333 11.1875 17.5 11.3 17.65 11.45L18.575 12.375C18.7083 12.525 18.8125 12.6917 18.8875 12.875C18.9625 13.0583 19 13.2417 19 13.425C19 13.6083 18.9667 13.7958 18.9 13.9875C18.8333 14.1792 18.725 14.35 18.575 14.5L13.375 19.7C13.275 19.8 13.1625 19.875 13.0375 19.925C12.9125 19.975 12.7833 20 12.65 20H11C10.7167 20 10.4792 19.9042 10.2875 19.7125C10.0958 19.5208 10 19.2833 10 19ZM16.575 14.4L17.5 13.425L16.575 12.5L15.625 13.45L16.575 14.4ZM10 7H14L9 2V6C9 6.28333 9.09583 6.52083 9.2875 6.7125C9.47917 6.90417 9.71667 7 10 7Z" fill="currentColor"></path></svg>