      <svg xmlns="http://www.w3.org/2000/svg" width="24" height="24" viewBox="0 0 24 24" fill="none">
                            <mask id="mask0_1_7106" maskUnits="userSpaceOnUse" x="0" y="0" width="24" height="24">
                                <rect width="24" height="24" fill="#D9D9D9"></rect>
                            </mask>
                            <g>
                                <path
                                    d="M17 8C16.5833 8 16.2292 7.85417 15.9375 7.5625C15.6458 7.27083 15.5 6.91667 15.5 6.5C15.5 6.18333 15.6375 5.81667 15.9125 5.4C16.1875 4.98333 16.425 4.65833 16.625 4.425C16.725 4.30833 16.85 4.25 17 4.25C17.15 4.25 17.275 4.30833 17.375 4.425C17.575 4.65833 17.8125 4.98333 18.0875 5.4C18.3625 5.81667 18.5 6.18333 18.5 6.5C18.5 6.91667 18.3542 7.27083 18.0625 7.5625C17.7708 7.85417 17.4167 8 17 8ZM19.5 15C18.8 15 18.2083 14.7583 17.725 14.275C17.2417 13.7917 17 13.2 17 12.5C17 11.9167 17.2292 11.2458 17.6875 10.4875C18.1458 9.72917 18.5583 9.13333 18.925 8.7C19.075 8.51667 19.2667 8.425 19.5 8.425C19.7333 8.425 19.925 8.51667 20.075 8.7C20.4417 9.13333 20.8542 9.72917 21.3125 10.4875C21.7708 11.2458 22 11.9167 22 12.5C22 13.2 21.7583 13.7917 21.275 14.275C20.7917 14.7583 20.2 15 19.5 15ZM9 16V17C9 17.2833 9.09583 17.5208 9.2875 17.7125C9.47917 17.9042 9.71667 18 10 18C10.2833 18 10.5208 17.9042 10.7125 17.7125C10.9042 17.5208 11 17.2833 11 17V16H12C12.2833 16 12.5208 15.9042 12.7125 15.7125C12.9042 15.5208 13 15.2833 13 15C13 14.7167 12.9042 14.4792 12.7125 14.2875C12.5208 14.0958 12.2833 14 12 14H11V13C11 12.7167 10.9042 12.4792 10.7125 12.2875C10.5208 12.0958 10.2833 12 10 12C9.71667 12 9.47917 12.0958 9.2875 12.2875C9.09583 12.4792 9 12.7167 9 13V14H8C7.71667 14 7.47917 14.0958 7.2875 14.2875C7.09583 14.4792 7 14.7167 7 15C7 15.2833 7.09583 15.5208 7.2875 15.7125C7.47917 15.9042 7.71667 16 8 16H9ZM6 20H14V12C14 10.9 13.6083 9.95833 12.825 9.175C12.0417 8.39167 11.1 8 10 8C8.9 8 7.95833 8.39167 7.175 9.175C6.39167 9.95833 6 10.9 6 12V20ZM6 22C5.45 22 4.97917 21.8042 4.5875 21.4125C4.19583 21.0208 4 20.55 4 20V12C4 10.5 4.475 9.2 5.425 8.1C6.375 7 7.56667 6.33333 9 6.1V4H8C7.71667 4 7.47917 3.90417 7.2875 3.7125C7.09583 3.52083 7 3.28333 7 3C7 2.71667 7.09583 2.47917 7.2875 2.2875C7.47917 2.09583 7.71667 2 8 2H13C13.4333 2 13.8542 2.05417 14.2625 2.1625C14.6708 2.27083 15.0583 2.425 15.425 2.625C15.6083 2.70833 15.75 2.83333 15.85 3C15.95 3.16667 16 3.35 16 3.55C16 3.83333 15.9 4.07083 15.7 4.2625C15.5 4.45417 15.2583 4.55 14.975 4.55C14.8417 4.55 14.6583 4.49167 14.425 4.375C14.2083 4.25833 13.9833 4.16667 13.75 4.1C13.5167 4.03333 13.2667 4 13 4H11V6.1C12.4333 6.33333 13.625 7 14.575 8.1C15.525 9.2 16 10.5 16 12V20C16 20.55 15.8042 21.0208 15.4125 21.4125C15.0208 21.8042 14.55 22 14 22H6Z"
                                    fill="currentColor"></path>
                            </g>
                        </svg>