<svg xmlns="http://www.w3.org/2000/svg" width="24" height="24" viewBox="0 0 24 24" fill="none"><g><path d="M12 17.0004C12.2833 17.0004 12.5208 16.9046 12.7125 16.7129C12.9042 16.5212 13 16.2837 13 16.0004V12.0004C13 11.7171 12.9042 11.4796 12.7125 11.2879C12.5208 11.0962 12.2833 11.0004 12 11.0004C11.7167 11.0004 11.4792 11.0962 11.2875 11.2879C11.0958 11.4796 11 11.7171 11 12.0004V16.0004C11 16.2837 11.0958 16.5212 11.2875 16.7129C11.4792 16.9046 11.7167 17.0004 12 17.0004ZM12 9.00039C12.2833 9.00039 12.5208 8.90456 12.7125 8.71289C12.9042 8.52122 13 8.28372 13 8.00039C13 7.71706 12.9042 7.47956 12.7125 7.28789C12.5208 7.09622 12.2833 7.00039 12 7.00039C11.7167 7.00039 11.4792 7.09622 11.2875 7.28789C11.0958 7.47956 11 7.71706 11 8.00039C11 8.28372 11.0958 8.52122 11.2875 8.71289C11.4792 8.90456 11.7167 9.00039 12 9.00039ZM12 21.9254H11.75C11.6667 21.9254 11.5917 21.9087 11.525 21.8754C9.34167 21.1921 7.54167 19.8379 6.125 17.8129C4.70833 15.7879 4 13.5504 4 11.1004V6.37539C4 5.95872 4.12083 5.58372 4.3625 5.25039C4.60417 4.91706 4.91667 4.67539 5.3 4.52539L11.3 2.27539C11.5333 2.19206 11.7667 2.15039 12 2.15039C12.2333 2.15039 12.4667 2.19206 12.7 2.27539L18.7 4.52539C19.0833 4.67539 19.3958 4.91706 19.6375 5.25039C19.8792 5.58372 20 5.95872 20 6.37539V11.1004C20 13.5504 19.2917 15.7879 17.875 17.8129C16.4583 19.8379 14.6583 21.1921 12.475 21.8754C12.3917 21.9087 12.2333 21.9254 12 21.9254Z" fill="currentColor"></path></g></svg>