<svg xmlns="http://www.w3.org/2000/svg" width="24" height="24" viewBox="0 0 24 24" fill="none"><g><path d="M11.999 18.2742L7.84904 20.7742C7.66571 20.8909 7.47404 20.9409 7.27404 20.9242C7.07404 20.9076 6.89904 20.8409 6.74904 20.7242C6.59904 20.6076 6.48237 20.4617 6.39904 20.2867C6.31571 20.1117 6.29904 19.9159 6.34904 19.6992L7.44904 14.9742L3.77404 11.7992C3.60737 11.6492 3.50321 11.4784 3.46154 11.2867C3.41987 11.0951 3.43237 10.9076 3.49904 10.7242C3.56571 10.5409 3.66571 10.3909 3.79904 10.2742C3.93237 10.1576 4.11571 10.0826 4.34904 10.0492L9.19904 9.62422L11.074 5.17422C11.1574 4.97422 11.2865 4.82422 11.4615 4.72422C11.6365 4.62422 11.8157 4.57422 11.999 4.57422C12.1824 4.57422 12.3615 4.62422 12.5365 4.72422C12.7115 4.82422 12.8407 4.97422 12.924 5.17422L14.799 9.62422L19.649 10.0492C19.8824 10.0826 20.0657 10.1576 20.199 10.2742C20.3324 10.3909 20.4324 10.5409 20.499 10.7242C20.5657 10.9076 20.5782 11.0951 20.5365 11.2867C20.4949 11.4784 20.3907 11.6492 20.224 11.7992L16.549 14.9742L17.649 19.6992C17.699 19.9159 17.6824 20.1117 17.599 20.2867C17.5157 20.4617 17.399 20.6076 17.249 20.7242C17.099 20.8409 16.924 20.9076 16.724 20.9242C16.524 20.9409 16.3324 20.8909 16.149 20.7742L11.999 18.2742Z" fill="currentColor"></path></g></svg>