<svg xmlns="http://www.w3.org/2000/svg" width="24" height="24" viewBox="0 0 24 24" fill="none"><g><path d="M3 21.7992V2.19922C3.03333 2.19922 3.07917 2.20339 3.1375 2.21172C3.19583 2.22005 3.26667 2.26589 3.35 2.34922L4.15 3.14922C4.25 3.24922 4.36667 3.29922 4.5 3.29922C4.63333 3.29922 4.75 3.24922 4.85 3.14922L5.65 2.34922C5.75 2.24922 5.86667 2.19922 6 2.19922C6.13333 2.19922 6.25 2.24922 6.35 2.34922L7.15 3.14922C7.25 3.24922 7.36667 3.29922 7.5 3.29922C7.63333 3.29922 7.75 3.24922 7.85 3.14922L8.65 2.34922C8.75 2.24922 8.86667 2.19922 9 2.19922C9.13333 2.19922 9.25 2.24922 9.35 2.34922L10.15 3.14922C10.25 3.24922 10.3667 3.29922 10.5 3.29922C10.6333 3.29922 10.75 3.24922 10.85 3.14922L11.65 2.34922C11.75 2.24922 11.8667 2.19922 12 2.19922C12.1333 2.19922 12.25 2.24922 12.35 2.34922L13.15 3.14922C13.25 3.24922 13.3667 3.29922 13.5 3.29922C13.6333 3.29922 13.75 3.24922 13.85 3.14922L14.65 2.34922C14.75 2.24922 14.8667 2.19922 15 2.19922C15.1333 2.19922 15.25 2.24922 15.35 2.34922L16.15 3.14922C16.25 3.24922 16.3667 3.29922 16.5 3.29922C16.6333 3.29922 16.75 3.24922 16.85 3.14922L17.65 2.34922C17.75 2.24922 17.8667 2.19922 18 2.19922C18.1333 2.19922 18.25 2.24922 18.35 2.34922L19.15 3.14922C19.25 3.24922 19.3667 3.29922 19.5 3.29922C19.6333 3.29922 19.75 3.24922 19.85 3.14922L20.65 2.34922C20.7333 2.26589 20.8042 2.22005 20.8625 2.21172C20.9208 2.20339 20.9667 2.19922 21 2.19922V21.7992C20.9667 21.7992 20.9208 21.7951 20.8625 21.7867C20.8042 21.7784 20.7333 21.7326 20.65 21.6492L19.85 20.8492C19.75 20.7492 19.6333 20.6992 19.5 20.6992C19.3667 20.6992 19.25 20.7492 19.15 20.8492L18.35 21.6492C18.25 21.7492 18.1333 21.7992 18 21.7992C17.8667 21.7992 17.75 21.7492 17.65 21.6492L16.85 20.8492C16.75 20.7492 16.6333 20.6992 16.5 20.6992C16.3667 20.6992 16.25 20.7492 16.15 20.8492L15.35 21.6492C15.25 21.7492 15.1333 21.7992 15 21.7992C14.8667 21.7992 14.75 21.7492 14.65 21.6492L13.85 20.8492C13.75 20.7492 13.6333 20.6992 13.5 20.6992C13.3667 20.6992 13.25 20.7492 13.15 20.8492L12.35 21.6492C12.25 21.7492 12.1333 21.7992 12 21.7992C11.8667 21.7992 11.75 21.7492 11.65 21.6492L10.85 20.8492C10.75 20.7492 10.6333 20.6992 10.5 20.6992C10.3667 20.6992 10.25 20.7492 10.15 20.8492L9.35 21.6492C9.25 21.7492 9.13333 21.7992 9 21.7992C8.86667 21.7992 8.75 21.7492 8.65 21.6492L7.85 20.8492C7.75 20.7492 7.63333 20.6992 7.5 20.6992C7.36667 20.6992 7.25 20.7492 7.15 20.8492L6.35 21.6492C6.25 21.7492 6.13333 21.7992 6 21.7992C5.86667 21.7992 5.75 21.7492 5.65 21.6492L4.85 20.8492C4.75 20.7492 4.63333 20.6992 4.5 20.6992C4.36667 20.6992 4.25 20.7492 4.15 20.8492L3.35 21.6492C3.26667 21.7326 3.19583 21.7784 3.1375 21.7867C3.07917 21.7951 3.03333 21.7992 3 21.7992ZM7 16.9992H17C17.2833 16.9992 17.5208 16.9034 17.7125 16.7117C17.9042 16.5201 18 16.2826 18 15.9992C18 15.7159 17.9042 15.4784 17.7125 15.2867C17.5208 15.0951 17.2833 14.9992 17 14.9992H7C6.71667 14.9992 6.47917 15.0951 6.2875 15.2867C6.09583 15.4784 6 15.7159 6 15.9992C6 16.2826 6.09583 16.5201 6.2875 16.7117C6.47917 16.9034 6.71667 16.9992 7 16.9992ZM7 12.9992H17C17.2833 12.9992 17.5208 12.9034 17.7125 12.7117C17.9042 12.5201 18 12.2826 18 11.9992C18 11.7159 17.9042 11.4784 17.7125 11.2867C17.5208 11.0951 17.2833 10.9992 17 10.9992H7C6.71667 10.9992 6.47917 11.0951 6.2875 11.2867C6.09583 11.4784 6 11.7159 6 11.9992C6 12.2826 6.09583 12.5201 6.2875 12.7117C6.47917 12.9034 6.71667 12.9992 7 12.9992ZM7 8.99922H17C17.2833 8.99922 17.5208 8.90339 17.7125 8.71172C17.9042 8.52005 18 8.28255 18 7.99922C18 7.71589 17.9042 7.47839 17.7125 7.28672C17.5208 7.09505 17.2833 6.99922 17 6.99922H7C6.71667 6.99922 6.47917 7.09505 6.2875 7.28672C6.09583 7.47839 6 7.71589 6 7.99922C6 8.28255 6.09583 8.52005 6.2875 8.71172C6.47917 8.90339 6.71667 8.99922 7 8.99922Z" fill="currentColor"></path></g></svg>