<svg xmlns="http://www.w3.org/2000/svg" width="24" height="24" viewBox="0 0 24 24" fill="none"><mask id="mask0_990_21211" maskUnits="userSpaceOnUse" x="0" y="0" width="24" height="24"><rect width="24" height="24" fill="#D9D9D9"></rect></mask><g mask="url(#mask0_990_21211)"><path d="M6 22.0002C5.16667 22.0002 4.45833 21.7085 3.875 21.1252C3.29167 20.5419 3 19.8335 3 19.0002V17.0002C3 16.7169 3.09583 16.4794 3.2875 16.2877C3.47917 16.096 3.71667 16.0002 4 16.0002H6V2.6002C6 2.48353 6.05 2.40436 6.15 2.3627C6.25 2.32103 6.34167 2.34186 6.425 2.4252L7.15 3.1502C7.25 3.2502 7.36667 3.3002 7.5 3.3002C7.63333 3.3002 7.75 3.2502 7.85 3.1502L8.65 2.3502C8.75 2.2502 8.86667 2.2002 9 2.2002C9.13333 2.2002 9.25 2.2502 9.35 2.3502L10.15 3.1502C10.25 3.2502 10.3667 3.3002 10.5 3.3002C10.6333 3.3002 10.75 3.2502 10.85 3.1502L11.65 2.3502C11.75 2.2502 11.8667 2.2002 12 2.2002C12.1333 2.2002 12.25 2.2502 12.35 2.3502L13.15 3.1502C13.25 3.2502 13.3667 3.3002 13.5 3.3002C13.6333 3.3002 13.75 3.2502 13.85 3.1502L14.65 2.3502C14.75 2.2502 14.8667 2.2002 15 2.2002C15.1333 2.2002 15.25 2.2502 15.35 2.3502L16.15 3.1502C16.25 3.2502 16.3667 3.3002 16.5 3.3002C16.6333 3.3002 16.75 3.2502 16.85 3.1502L17.65 2.3502C17.75 2.2502 17.8667 2.2002 18 2.2002C18.1333 2.2002 18.25 2.2502 18.35 2.3502L19.15 3.1502C19.25 3.2502 19.3667 3.3002 19.5 3.3002C19.6333 3.3002 19.75 3.2502 19.85 3.1502L20.575 2.4252C20.6583 2.34186 20.75 2.32103 20.85 2.3627C20.95 2.40436 21 2.48353 21 2.6002V19.0002C21 19.8335 20.7083 20.5419 20.125 21.1252C19.5417 21.7085 18.8333 22.0002 18 22.0002H6ZM18 20.0002C18.2833 20.0002 18.5208 19.9044 18.7125 19.7127C18.9042 19.521 19 19.2835 19 19.0002V5.0002H8V16.0002H16C16.2833 16.0002 16.5208 16.096 16.7125 16.2877C16.9042 16.4794 17 16.7169 17 17.0002V19.0002C17 19.2835 17.0958 19.521 17.2875 19.7127C17.4792 19.9044 17.7167 20.0002 18 20.0002ZM10 7.0002H14C14.2833 7.0002 14.5208 7.09603 14.7125 7.2877C14.9042 7.47936 15 7.71686 15 8.0002C15 8.28353 14.9042 8.52103 14.7125 8.7127C14.5208 8.90436 14.2833 9.0002 14 9.0002H10C9.71667 9.0002 9.47917 8.90436 9.2875 8.7127C9.09583 8.52103 9 8.28353 9 8.0002C9 7.71686 9.09583 7.47936 9.2875 7.2877C9.47917 7.09603 9.71667 7.0002 10 7.0002ZM10 10.0002H14C14.2833 10.0002 14.5208 10.096 14.7125 10.2877C14.9042 10.4794 15 10.7169 15 11.0002C15 11.2835 14.9042 11.521 14.7125 11.7127C14.5208 11.9044 14.2833 12.0002 14 12.0002H10C9.71667 12.0002 9.47917 11.9044 9.2875 11.7127C9.09583 11.521 9 11.2835 9 11.0002C9 10.7169 9.09583 10.4794 9.2875 10.2877C9.47917 10.096 9.71667 10.0002 10 10.0002ZM17 9.0002C16.7167 9.0002 16.4792 8.90436 16.2875 8.7127C16.0958 8.52103 16 8.28353 16 8.0002C16 7.71686 16.0958 7.47936 16.2875 7.2877C16.4792 7.09603 16.7167 7.0002 17 7.0002C17.2833 7.0002 17.5208 7.09603 17.7125 7.2877C17.9042 7.47936 18 7.71686 18 8.0002C18 8.28353 17.9042 8.52103 17.7125 8.7127C17.5208 8.90436 17.2833 9.0002 17 9.0002ZM17 12.0002C16.7167 12.0002 16.4792 11.9044 16.2875 11.7127C16.0958 11.521 16 11.2835 16 11.0002C16 10.7169 16.0958 10.4794 16.2875 10.2877C16.4792 10.096 16.7167 10.0002 17 10.0002C17.2833 10.0002 17.5208 10.096 17.7125 10.2877C17.9042 10.4794 18 10.7169 18 11.0002C18 11.2835 17.9042 11.521 17.7125 11.7127C17.5208 11.9044 17.2833 12.0002 17 12.0002Z" fill="currentColor"></path></g></svg>