<svg xmlns="http://www.w3.org/2000/svg" width="24" height="24" viewBox="0 0 24 24" fill="none"><g><g><g><path d="M21 12.999H19C18.7167 12.999 18.4792 12.9031 18.2875 12.7115C18.0958 12.5198 18 12.2823 18 11.999C18 11.7156 18.0958 11.4781 18.2875 11.2865C18.4792 11.0948 18.7167 10.999 19 10.999H21C21.2833 10.999 21.5208 11.0948 21.7125 11.2865C21.9042 11.4781 22 11.7156 22 11.999C22 12.2823 21.9042 12.5198 21.7125 12.7115C21.5208 12.9031 21.2833 12.999 21 12.999ZM16.6 16.799C16.7667 16.5656 16.9833 16.4323 17.25 16.399C17.5167 16.3656 17.7667 16.4323 18 16.599L19.6 17.799C19.8333 17.9656 19.9667 18.1823 20 18.449C20.0333 18.7156 19.9667 18.9656 19.8 19.199C19.6333 19.4323 19.4167 19.5656 19.15 19.599C18.8833 19.6323 18.6333 19.5656 18.4 19.399L16.8 18.199C16.5667 18.0323 16.4333 17.8156 16.4 17.549C16.3667 17.2823 16.4333 17.0323 16.6 16.799ZM19.6 6.19896L18 7.39896C17.7667 7.56563 17.5167 7.63229 17.25 7.59896C16.9833 7.56562 16.7667 7.43229 16.6 7.19896C16.4333 6.96563 16.3667 6.71563 16.4 6.44896C16.4333 6.18229 16.5667 5.96562 16.8 5.79896L18.4 4.59896C18.6333 4.43229 18.8833 4.36562 19.15 4.39896C19.4167 4.43229 19.6333 4.56563 19.8 4.79896C19.9667 5.03229 20.0333 5.28229 20 5.54896C19.9667 5.81562 19.8333 6.03229 19.6 6.19896ZM5 14.999H4C3.45 14.999 2.97917 14.8031 2.5875 14.4115C2.19583 14.0198 2 13.549 2 12.999V10.999C2 10.449 2.19583 9.97813 2.5875 9.58646C2.97917 9.19479 3.45 8.99896 4 8.99896H8L11.475 6.89896C11.8083 6.69896 12.1458 6.69896 12.4875 6.89896C12.8292 7.09896 13 7.39062 13 7.77396V16.224C13 16.6073 12.8292 16.899 12.4875 17.099C12.1458 17.299 11.8083 17.299 11.475 17.099L8 14.999H7V17.999C7 18.2823 6.90417 18.5198 6.7125 18.7115C6.52083 18.9031 6.28333 18.999 6 18.999C5.71667 18.999 5.47917 18.9031 5.2875 18.7115C5.09583 18.5198 5 18.2823 5 17.999V14.999ZM14 15.349V8.64896C14.45 9.04896 14.8125 9.53646 15.0875 10.1115C15.3625 10.6865 15.5 11.3156 15.5 11.999C15.5 12.6823 15.3625 13.3115 15.0875 13.8865C14.8125 14.4615 14.45 14.949 14 15.349Z" fill="currentColor"></path></g></g></g></svg>